<svg xmlns="http://www.w3.org/2000/svg" xmlns:xlink="http://www.w3.org/1999/xlink" fill="none" version="1.1" width="24" height="24" viewBox="0 0 24 24"><defs><clipPath id="master_svg0_18_3797"><rect x="0" y="0" width="24" height="24" rx="0"/></clipPath></defs><g clip-path="url(#master_svg0_18_3797)"><g><path d="M15.539997572937011,11.28955C15.539997572937011,11.28955,9.879997572937011,5.639548,9.879997572937011,5.639548C9.787037572937011,5.54582,9.676437572937012,5.471426,9.554577572937012,5.4206572C9.432717572937012,5.3698885,9.302007572937011,5.34375,9.169997572937012,5.34375C9.037988572937012,5.34375,8.907282572937012,5.3698885,8.785423572937011,5.4206572C8.663563572937012,5.471426,8.552962572937012,5.54582,8.459999572937011,5.639548C8.273749572937012,5.826911,8.169207572937013,6.080362,8.169207572937012,6.34455C8.169207572937013,6.6087299999999995,8.273749572937012,6.86219,8.459999572937011,7.04955C8.459999572937011,7.04955,13.409997572937012,12.04955,13.409997572937012,12.04955C13.409997572937012,12.04955,8.459999572937011,16.99955,8.459999572937011,16.99955C8.273749572937012,17.18695,8.169207572937012,17.440350000000002,8.169207572937012,17.704549999999998C8.169207572937012,17.96875,8.273749572937012,18.22215,8.459999572937011,18.40955C8.552614572937012,18.50405,8.663059572937012,18.579250000000002,8.784934572937011,18.63075C8.906810572937012,18.68215,9.037692572937011,18.70895,9.169997572937012,18.70955C9.302307572937012,18.70895,9.433187572937012,18.68215,9.555067572937013,18.63075C9.676937572937012,18.579250000000002,9.787387572937012,18.50405,9.879997572937011,18.40955C9.879997572937011,18.40955,15.539997572937011,12.75955,15.539997572937011,12.75955C15.641507572937012,12.66591,15.722517572937011,12.55225,15.777917572937012,12.42576C15.833327572937012,12.29926,15.861937572937013,12.16265,15.861937572937013,12.02455C15.861937572937013,11.88645,15.833327572937012,11.749839999999999,15.777917572937012,11.623339999999999C15.722517572937011,11.496839999999999,15.641507572937012,11.383189999999999,15.539997572937011,11.28955C15.539997572937011,11.28955,15.539997572937011,11.28955,15.539997572937011,11.28955Z" fill="#000000" fill-opacity="0.5"/></g></g></svg>